<?xml version="1.0" encoding="UTF-8"?>
<svg id="Layer_1" data-name="Layer 1" xmlns="http://www.w3.org/2000/svg" viewBox="0 0 185.45 63">
  <path d="M31.32,3.9c4.27.06,9.84.45,13.62,1.71,2.19.91,2.08,3.34,2.11,5.47-.21,3.18.55,8.02-.59,10.75-.64,1.16-1.77.5-2.77-1.66-1.65-3.41-1.52-9.01-5.91-9.92-6.36-1.12-18.57-1.52-23.56,2.85-6.02,6.97-7.47,17.81-6.06,27.06,1.36,8.73,7.32,15.54,16.69,17.12,3.83.7,9.16.76,12.58-.13,2-.52,2.24-2.67,2.26-4.47.05-3.63.19-9.45.16-12.14.08-1.55-.82-2.61-2.32-2.85-2.12-.56-6.2-.82-8.02-1.73-.46-.2-.94-.49-1.22-.82-.87-1.36,1.55-1.6,2.54-1.6,4.89,0,16.15-.01,20.89,0,3.4.02,2.94,1.84-.49,3.23-2.33.77-4.25,1.34-4.16,4.23-.07,4.02.02,12.54-.05,16.56.05,1.82-.87,3.31-2.72,3.69-16.88,4.17-38.96,1.91-43.28-18.42C-3.66,21.04,7.98,3.69,31.12,3.9h.2ZM147.73,58.66c1.51.69,6.97,2.61,4.35,3.68-3.09.41-6.74.04-12.29.16-9-.02-20.05.03-23.89-.03-1.65-.07-1.99-1.09-.08-2.34.96-.7,2.44-1.24,3.3-1.9.8-.64,1.06-1.57,1.11-3.09.06-1.8.14-4.42.22-7.3l.26-8.62c.08-2.96.19-5.41.22-7.98.01-2.01-.71-3.19-2.6-4.32-4.06-2.43-9.03-2.77-13.45-.88-2.5.9-4.8,2.61-4.51,5.45-.01,5.15,0,17.57,0,23.32.03,1.08-.11,1.99.31,2.91.09,1.24,6.66,2.61,5.39,4.18-1.52,1.01-5.65.45-8.87.59-2.98-.2-6.51.5-9.24-.5-1.49-1.32,2.75-2.79,3.97-3.62.92-.63,1.16-1.55,1.24-2.67.18-5.25.53-19.57.68-24.99.03-1.11.02-2.11-.47-3.13-.69-1.49-2.7-3.52-2.34-5.28.27-1.76,3.73-2.81,5.64-3.16,2.18-.42,3.01,1.8,3.38,3.53,1.62,7.26,7.62-9.84,21.84-1.67,2.51,1.58,5.43,3.62,5.45,6.83.25,5.6-.39,22.05.25,29.79,1.52,2.78,9.44,2.37,11.19.22.46-.57.61-1.35.65-2.14.17-5.55.51-18.44.68-25.31.72-4.08-6.77-8.02-.05-10.38,1.79-.53,4.58-1.88,6.12-.89.38.39.43,1.14.43,1.76.01,6.98-.01,30.3.01,35.93.03.8.2,1.36.97,1.79l.1.06ZM89.35,29.55c-1.6-6.66-8.06-11.18-14.79-11.04h-.2c-22.39-.49-26.33,38.12-5.63,43.71,6.27,1.57,13.22-.26,18.18-4.32.81-.64,2.92-2.83.56-2.74-2.32.28-4.97,1.51-7.35,1.8-4.07.69-8.85.2-12.28-2.27-2.81-1.84-7.26-8.23-4.56-11.32.92-.83,2.46-.96,3.71-1.02,4.62-.19,9.41-.56,13.94-1.06,2.65-.54,6.14-.04,8.03-2.3,1.67-2.66,1-6.47.39-9.44ZM83.52,37.36c-.29.66-.91.84-1.62.87-3.58.06-13.92.16-18.03.2-.97.01-2.01-.12-2.04-1.28-.03-2.1.82-4.9,1.58-7,1.28-4.61,5.75-6.69,10.21-6.68h.2c7.35-.12,11.34,7.4,9.7,13.89ZM184.79,29.55c-1.6-6.66-8.06-11.18-14.79-11.04h-.2c-22.39-.49-26.33,38.12-5.63,43.71,6.27,1.57,13.22-.26,18.18-4.32.81-.64,2.92-2.83.56-2.74-2.32.28-4.97,1.51-7.35,1.8-4.07.69-8.85.2-12.28-2.27-2.81-1.84-7.26-8.23-4.56-11.32.92-.83,2.46-.96,3.71-1.02,4.62-.19,9.41-.56,13.94-1.06,2.65-.54,6.14-.04,8.03-2.3,1.67-2.66,1-6.47.39-9.44ZM178.96,37.36c-.29.66-.91.84-1.62.87-3.58.06-13.92.16-18.03.2-.97.01-2.01-.12-2.04-1.28-.03-2.1.82-4.9,1.58-7,1.28-4.61,5.75-6.69,10.21-6.68h.2c7.35-.12,11.34,7.4,9.7,13.89Z"/>
  <path d="M142.11,14.07c-.32-.04-.53-.48-.71-.78-1.41-2.54-2.9-4.33-5.67-5.61-.55-.26-1.26-.69-.4-1.13,1.27-.63,2.61-1.34,3.6-2.35,1.06-.96,1.86-2.48,2.66-3.91.42-.65.88-.12,1.14.38,1.38,2.52,2.89,4.35,5.76,5.64.54.25,1.34.68.48,1.14-1.25.64-2.59,1.31-3.6,2.28-1.08.93-1.99,2.44-2.77,3.93-.13.21-.27.35-.4.39h-.1Z"/>
</svg>